<?xml version="1.0" encoding="UTF-8" standalone="no"?>
<svg xmlns="http://www.w3.org/2000/svg" width="0" height="0" style="display: none;">
  <!-- ===================================================================
       MASCOT PATHS LIBRARY — DrShrink brain
       Multi-layer trace of drshrink2.png (5-color posterize → potrace per layer).
       Faithful: background silhouette + full black linework (outline + mirror)
       + separately-extracted eyes for engine tracking/blink.
       viewBox 0 0 1024 1024.
       =================================================================== -->
  <path id="mascot-background" d="M 463.7 102.7 C 463.4 103 459.7 103.6 455.6 104.1 C 435.9 106.3 404.2 119 382 133.6 C 352.6 152.9 323.9 186.8 310.9 217.5 C 303.6 234.8 303.4 235.1 288.8 240.9 C 273.7 246.9 262.8 252.5 240 266.2 C 238.1 267.4 234.3 270.2 231.5 272.4 C 228.8 274.7 223.8 278.6 220.5 281 C 210.6 288.5 187.3 312.6 177.3 325.8 C 155.9 354 139.3 388.4 131 421.7 C 129.8 426.5 128.4 432.1 127.9 434 C 125.9 441.2 124.7 457.2 124.3 481.5 C 123.8 517.7 126.4 535.1 137.1 565.9 C 141.6 579.1 141.6 579.1 139.1 586.7 C 136.4 595 133.9 606.3 132.8 615 C 132.3 619.1 131.7 624.1 131.3 626 C 130.6 630.6 130.6 669.3 131.3 674.5 C 135 701.3 135.5 703.1 145 730.6 C 149.4 743.3 159.9 762.4 171.9 780 C 177.8 788.6 196 807.2 208.5 817.4 C 227.6 833 250.6 845.8 271.5 852.5 C 277.7 854.5 290.1 858 294 859 C 295.9 859.4 299.8 860.3 302.5 861 C 305.3 861.6 318.1 862.4 331 862.7 C 357.3 863.3 354.8 862.6 366.5 872 C 396.2 895.8 443.2 916.5 474.5 919.7 C 477.3 919.9 481.1 920.6 483 921.1 C 484.9 921.6 496.3 922 508.4 922 C 533.9 922 545.8 920.5 566.5 914.6 C 567.1 914.5 569.5 913.8 572 913.1 C 598 905.9 626.9 889.9 649.8 869.8 C 654.4 865.8 659.3 861.6 660.7 860.5 C 663 858.7 664.8 858.5 685.3 858.3 C 697.5 858.2 710.4 857.6 714 856.9 C 725.5 854.9 739.3 851.2 748 848 C 752.7 846.2 757.7 844.4 759.3 844 C 781.1 837.3 824.3 804.1 839.1 782.6 C 841.5 779.3 845.3 773.7 847.6 770.3 C 861.1 750.7 873.2 719.6 875.6 698 C 875.8 695.5 876.5 691.2 877 688.5 C 878.4 681.8 878.8 660.8 877.9 648.5 C 877.1 639 876.6 635.3 874 621.5 C 873.3 618.2 872.6 614.3 872.3 612.9 C 872 611.1 873.4 606.8 876.9 599.3 C 885 581.9 891.2 563.3 895.5 543.5 C 900.1 522.4 901.1 478.7 897.4 458.4 C 888.7 409.9 871.8 372 844.1 338.6 L 837.5 330.6 L 837.5 303.1 C 837.4 277.7 837.2 274.8 835.2 267 C 818.9 205.5 764.7 162 704.5 162 C 686.2 162 664.2 166.9 648.6 174.5 C 643.7 176.9 639.1 178.6 638.4 178.3 C 637.7 178 634.5 174.5 631.4 170.5 C 625.9 163.2 620.1 157.6 604.5 144.6 C 579 123.3 546.9 108.8 513.6 103.5 C 504.1 102 465 101.3 463.7 102.7 Z"/>
  <path id="mascot-body-path" fill-rule="evenodd" d="M 460 101.1 C 457 101.7 451.8 102.8 448.5 103.6 C 445.2 104.4 441.5 105.3 440.3 105.5 C 433.3 107.1 415.1 114 406 118.5 C 385 129 375.3 135.6 358.5 150.3 C 338.2 168.2 318 196.4 307.9 220.9 C 304.5 229.4 300 236 297.8 236 C 294.2 236 268 248 254.5 255.8 C 220.9 275.3 186.9 307.6 165.8 340.1 C 156 355.3 154.2 358.4 148 371.5 C 137.5 393.6 130.4 413.6 127.5 429.4 C 127.2 431 126.7 432.6 126.5 432.9 C 126.3 433.3 125.4 438 124.4 443.5 C 120.6 464.4 122.2 521.4 127 537.5 C 128 540.8 129.3 545.7 129.8 548.5 C 130.9 553.4 132.4 558.1 137 570.5 C 139.5 577.3 139.2 582.5 136 591.3 C 133.9 597 132.2 605.4 131.4 614 C 131.1 617 130.5 621.3 130 623.4 C 128.6 630 128.8 666.5 130.4 679 C 133.1 699.7 134.9 706.7 144.5 733.8 C 151.2 752.8 170 781.7 187.4 799.7 C 212.2 825.5 247.4 847.8 275.8 855.6 C 304.3 863.5 308.4 864.1 333.2 864.3 L 354.9 864.5 L 365 872.5 C 388.2 890.7 425.1 910.2 444.5 914.4 C 445.1 914.5 448.2 915.5 451.5 916.5 C 454.8 917.5 458.2 918.5 459 918.6 C 465.8 919.7 473.5 921.2 474 921.5 C 478.1 924.1 525.9 924.1 542.5 921.6 C 582.4 915.5 623.1 895.8 654.5 867.4 L 662 860.5 L 687.3 859.9 C 715.9 859.2 725.8 857.6 747 850.1 C 767.7 842.7 781.5 835.3 805 818.7 C 811.3 814.3 834.2 791.8 837.6 786.7 C 839.2 784.4 842.1 780.5 844 778 C 859.3 758.8 874.1 722.9 877.5 697 C 877.6 695.6 878.3 691 878.9 686.7 C 881.2 670.2 879.8 639.2 876 623 C 873.2 611.5 873.5 609.3 879.1 597.5 C 891.2 571.5 898.2 545.9 901 517.5 C 902.1 506.8 901.4 470.6 900.1 465 C 899.5 462.5 897.9 454 896.5 446 C 890 409.2 872 371.2 845.7 338.6 L 837.7 328.8 L 838.6 321.6 C 841.8 296.3 838.1 264.8 829.9 246.2 C 815.9 214.9 792.3 189.8 763.2 175.1 C 754.6 170.8 745.8 167.1 742.7 166.5 C 741.7 166.3 737.7 165.2 733.7 164.2 C 707.5 157.1 675.5 160.4 648.9 172.9 C 644.1 175.2 639.7 177 639.1 177 C 638.5 177 636.2 174.4 633.8 171.2 C 629.4 165.3 619.7 155.4 612 149.2 C 609.5 147.2 605.4 143.7 602.9 141.5 C 587.4 128 551 109.7 531.3 105.5 C 530.3 105.3 525.7 104.2 521 103 C 511.3 100.5 470.5 99.2 460 101.1 Z M 523 142.3 C 544.2 148.4 550.9 151.4 569.5 163.5 C 578.8 169.6 602.8 192 606.3 197.9 L 608.1 201 L 602.8 206.8 C 582.7 228.2 570.3 254.3 567 282 C 566.4 287.2 565.4 292 564.8 292.7 C 564 293.8 536.6 294 420 293.9 C 265 293.9 269 294 277.2 289 C 284.2 284.8 301.4 277.9 312.7 274.9 C 330.9 270.1 332.4 269 335 258.8 C 351.2 196.9 401.7 149.6 463 138.9 C 465.5 138.5 477.2 138.3 489 138.5 C 510.2 138.8 510.7 138.8 523 142.3 Z M 721.7 201.9 C 734.2 204.4 748.9 210.3 757 216 C 793.2 241.5 808.2 285.4 795.4 328 C 786.5 357.8 756.5 385.1 725.6 391.4 C 713.7 393.9 710.3 394.2 699.5 393.7 C 664.5 392.1 634.8 374.3 618.3 345 C 594.1 302.2 607.4 244.9 648 217.8 C 663.6 207.3 675.9 202.7 691.5 201.3 C 695.4 201 698.7 200.6 698.9 200.4 C 700.1 199.3 713.1 200.2 721.7 201.9 Z M 569.2 333.8 C 570.1 334.5 571.5 337.6 572.5 340.8 C 576.2 352.8 584.5 367.1 597.2 383.9 C 604.5 393.5 628.2 412.4 641.7 419.4 C 663 430.3 692.8 436.3 714 433.9 C 741.6 430.7 763.5 422.1 786 405.7 C 793.9 399.9 808.6 385.4 812.5 379.5 C 818.8 370 820.5 368.4 822.5 370 C 828.2 374.7 845.1 405 851.2 421.4 C 862.1 451 866.9 492 862.6 519.5 C 861.8 524.4 860.9 530.7 860.5 533.5 C 858.6 549 852.2 567.7 841.5 589.4 C 837.4 597.7 834 605.3 834 606.3 C 834 607.2 835.3 612.8 836.9 618.7 C 855.1 685.4 831.9 753.9 778.2 792.3 C 767.6 799.9 753.3 808 745.5 810.7 C 716.3 821.2 693.8 824.1 661.7 821.5 C 652.3 820.8 649.6 822.2 636.5 834.9 C 630.3 840.8 622.5 847.7 619 850.1 C 615.6 852.5 610 856.5 606.6 858.9 C 594.4 867.5 566.5 878.9 550 881.9 C 546.4 882.6 541.5 883.7 539 884.3 C 530.4 886.6 486.3 885.8 474 883.1 C 453.4 878.7 439.9 874 421.5 864.8 C 411.2 859.7 390.1 844.9 380.5 836.2 C 370.1 826.6 371.2 826.9 345.7 826.8 C 320 826.7 313.7 826.1 298 822.1 C 269.8 814.9 262.2 811.4 235.5 793 C 223.5 784.8 202.2 761.3 192.8 746 C 185.4 734 175.3 711.1 172.9 701 C 169.7 687.2 168.8 682.5 167.5 671.5 C 164.2 644.8 167.1 618 176.7 587.2 C 179.8 577.3 179.4 574.2 173.4 560.6 C 159.5 528.8 155.3 481 163 442.5 C 169.6 410.2 185.7 374.7 205.5 349.3 C 207.7 346.5 210.3 343 211.3 341.6 C 213.8 337.9 219.5 333.8 223.1 333.1 C 229.5 331.8 567.6 332.4 569.2 333.8 Z M 693.3 260.9 C 685.2 263 673.4 273.5 668.8 282.8 C 664.9 290.8 664.9 303.4 668.9 311.5 C 673.1 320 680.1 327.2 687.5 330.7 C 692.8 333.2 694.6 333.5 703.5 333.5 C 716.4 333.5 723.6 330.5 731 322.2 C 747.9 303.2 742.3 274.6 719.6 263.5 C 713.2 260.4 700.3 259.1 693.3 260.9 Z"/>
  <path id="mascot-eye-left-path" fill-rule="evenodd" d="M 386.5 452 C 369.8 454.5 356.2 471.2 350 497 C 346.7 510.4 346.6 536.6 349.8 548.2 C 354.7 566.3 359.9 577 367.5 584.6 C 389.7 606.9 420.9 593.6 431.5 557.2 C 436.1 541.4 437.5 516.3 434.5 502.5 C 433.6 498.6 432.5 493.5 432 491 C 431.4 488.5 428.9 482.2 426.3 477 C 417 458.3 403 449.5 386.5 452 Z"/>
  <path id="mascot-eye-right-path" fill-rule="evenodd" d="M 618.1 452.1 C 602.3 455.1 586.9 475.5 582.9 498.9 C 581 510.3 580.7 512.7 580.7 523.5 C 580.6 544.1 584 558.9 591.8 572.5 C 600.8 588 611.9 595.4 626 595.5 C 632.8 595.5 634.1 595.1 640.1 591.8 C 648.8 586.9 654.9 580.1 659.8 569.9 C 668.6 551.8 671.7 528.9 668.5 507.7 C 666.1 491.9 664.8 487.4 658.6 475.1 C 649.9 457.9 634.4 449.1 618.1 452.1 Z"/>
</svg>
