<?xml version="1.0" encoding="UTF-8" standalone="no"?>
<svg xmlns="http://www.w3.org/2000/svg" width="0" height="0" style="display: none;">
  <!-- ===================================================================
       MASCOT PATHS LIBRARY — documentghost
       Generated by flatten-v2.mjs. viewBox 0 0 1024 1024.
       Flattened native coords (absolute M/L/C, no <g transform>).
       - mascot-background : solid silhouette (gradient-filled, behind)
       - mascot-body-path  : outer + inner contour,
                             fill-rule="evenodd" => chunky #1a2e2a ring
       - mascot-eye-left/right-path : separate paths (engine blink + tracking)
       =================================================================== -->
  <path id="mascot-background" d="M 275.5 97.2 C 271.6 98.2 268.9 99.2 262 102.4 C 245.4 109.9 231.4 126.2 228.1 141.9 C 227.5 144.9 226.4 148 225.7 148.8 C 224.8 150 224.4 182.8 224 293.4 L 223.5 436.5 L 218.5 436.2 C 215.8 436 211.7 435 209.5 434 C 207.3 433.1 203.8 431.5 201.7 430.6 C 195.5 427.9 180 411.9 180 408.1 C 180 407.5 179 405.4 177.8 403.3 C 176.7 401.2 175.1 396.8 174.4 393.5 L 173.1 387.5 L 185.1 375.5 C 191.6 368.9 197 363.1 197 362.6 C 197 362.2 198 361 199.3 360 C 201.5 358.2 201.5 357.7 201.5 337.7 L 201.5 317.2 L 198.3 312.6 C 196.5 310 195 307.7 195 307.4 C 195 307.2 191.6 303.6 187.5 299.5 C 183.4 295.5 180 291.6 180 291.1 C 180 290.5 179.5 290 179 290 C 177.9 290 136 248.5 136 247.5 C 136 246.5 133.2 244 132.1 244 C 131.6 244 130.3 242.6 129.3 241 C 128.4 239.3 127 238 126.4 238 C 125.8 238 125 237.1 124.7 236 C 124.4 234.9 122.9 233.5 121.3 232.9 C 119.8 232.3 117.7 231.2 116.8 230.3 C 113.7 227.5 99.7 228.3 95.1 231.4 C 89.5 235.3 47.2 279.1 44.8 283.6 C 41.2 290 41.7 298.6 46.1 305 C 48 307.7 49.8 310 50.3 310 C 50.7 310 51 310.6 51 311.3 C 51 312 67.5 329.2 87.7 349.6 C 128.5 390.7 126.2 389 140 389 C 143.2 389 146.2 389.4 146.5 390 C 146.8 390.5 148.6 391 150.3 391 C 153.9 391 154.6 392.1 157.5 402.5 C 159.3 409.1 164.8 421 166 421 C 166.4 421 167.1 422.1 167.4 423.5 C 168.2 426.7 182.3 440.8 187.5 443.6 C 202.7 451.7 206.1 453 215.3 454.3 L 223.5 455.5 L 223.8 477.1 C 224 495.4 223.8 498.9 222.5 500 C 221.7 500.7 221 500.9 221 500.5 C 221 500.1 220.4 500.2 219.8 500.7 C 219.1 501.2 215.8 502.3 212.5 503 C 209.2 503.7 205.8 504.9 205 505.5 C 204.2 506.2 202.4 507.1 201 507.5 C 199.6 507.9 195.9 510 192.6 512.1 C 189.4 514.3 186.4 516 186 516 C 185.6 516 185 516.7 184.6 517.5 C 184.3 518.3 183.6 519 183 519 C 181.3 519 172.1 528 169.4 532.2 L 167.1 535.8 L 149.3 536.2 L 131.4 536.5 L 126.5 539.7 C 121.7 542.8 112.3 552.1 65.8 599.7 C 42.8 623.2 42 624.3 42 633.8 C 42 639.2 43.9 643.8 48.2 648.6 C 50.1 650.8 52 653.3 52.3 654.3 C 52.7 655.2 53.7 656.3 54.7 656.7 C 57.3 657.7 60 660.3 60 661.7 C 60 662.4 60.5 663 61.1 663 C 62.3 663 65 665.5 65 666.6 C 65 667.8 92.4 694.9 93.8 695 C 94.4 695 95 695.3 95 695.7 C 95 697.4 101.4 700 105.3 700 C 114 700 117.8 696.9 153.9 660.6 C 205.8 608.3 201.5 614.8 201.5 588.4 L 201.5 569.3 L 198.5 564.9 C 196.9 562.5 193.3 558.2 190.5 555.5 C 182.6 547.7 182.5 547.6 184.6 544 C 185.6 542.4 187 541 187.7 541 C 188.4 541 189 540.6 189 540 C 189 538.6 192.2 535 193.5 535 C 194.1 535 195.1 534.1 195.8 533 C 196.5 531.9 197.5 531 198 531 C 198.6 531 201.3 529.4 204.1 527.5 C 206.9 525.6 209.9 524 210.6 524 C 211.4 524 213.7 523.1 215.7 522 C 217.8 520.9 220.5 520 221.7 520 L 223.9 520 L 224.2 662.2 C 224.5 795.4 224.6 804.7 226.2 807.5 C 227.2 809.1 228 811.2 228 812 C 228 817.7 236.3 832.1 244.2 840.1 C 253.3 849.4 270.4 857 281.9 857 C 283.5 857 285.2 857.4 285.5 858 C 286.4 859.4 320.7 859.3 321.5 858 C 322 857.2 322.6 857.2 323.5 858 C 324.4 858.8 325 858.8 325.5 858 C 327.3 855.1 330.2 859.9 333.6 871.5 C 334.5 874.8 335.7 877.9 336.1 878.5 C 336.5 879 337.7 881.7 338.7 884.5 C 339.8 887.2 343.2 892.8 346.3 896.9 C 349.4 900.9 352 904.6 352 905.1 C 352 905.6 352.7 906 353.5 906 C 354.3 906 355 906.7 355 907.5 C 355 908.3 355.6 909 356.4 909 C 357.2 909 359 910.3 360.3 912 C 361.7 913.6 363.2 915 363.6 915 C 364 915 365.7 916 367.4 917.3 C 369.1 918.6 373 920.5 376 921.5 C 379 922.4 382.8 923.9 384.3 924.7 C 390.2 927.8 422 927.3 422 924.1 C 422 923.8 424.1 922.8 426.7 922 C 434.5 919.8 443.8 912.6 452.4 902.2 C 458.1 895.4 465 883.1 465 879.9 C 465 878.9 465.5 877.8 466 877.5 C 466.6 877.2 467 875.8 467 874.4 C 467 873.1 467.4 872 467.9 872 C 468.4 872 469.1 869.9 469.4 867.2 C 470.7 858.1 467 859 504.1 859 C 526.1 859 537 858.7 537 858 C 537 857.3 541 857 548.2 857.2 C 561.3 857.5 560.6 857 563.6 870.5 C 565.4 878.6 566 880.3 569.9 887.5 C 571.1 889.7 573 893.5 574.2 896 C 576.8 901.2 592.3 917 595 917 C 595.9 917 597.3 917.6 597.9 918.3 C 598.5 919.1 600.9 920.5 603.2 921.5 C 605.6 922.4 608.9 924 610.5 924.9 C 614.9 927.2 643.4 927.3 647.1 924.9 C 648.4 924 651.1 922.9 652.9 922.5 C 654.8 922.1 658 920.8 659.9 919.7 C 661.9 918.6 664.8 917 666.4 916.2 C 669.5 914.6 685 899.2 685 897.8 C 685 897.3 687 894 689.4 890.6 C 692.5 886.2 694.5 881.8 696 876.1 C 697.2 871.6 698.6 867.7 699.1 867.4 C 699.6 867.1 700 865.8 700 864.5 C 700 863.2 700.5 861 701.1 859.6 L 702.3 857.1 L 727.4 857.1 C 756 857 760.9 856.5 770.5 851.8 C 776.1 849.1 778.4 847.7 779.3 846.2 C 779.7 845.6 780.7 845 781.4 845 C 782.9 845 795 832.5 795 831 C 795 830.5 796.4 827.9 798 825.3 C 799.7 822.7 801 819.9 801 819.1 C 801 818.2 801.7 816.3 802.5 814.7 C 804.3 811.2 806 799 806 789.4 L 806 782 L 825.7 782 C 845.3 782 845.5 782 850.7 779.2 C 853.6 777.7 856 776.1 856 775.7 C 856 775.3 857 773.6 858.3 771.9 C 860.5 768.9 860.5 768.4 860.8 732.7 C 861.1 693.1 860.8 690.1 855.8 683.8 C 850.4 676.9 847.2 676.1 825.5 675.8 L 806.5 675.5 L 806.2 608.6 L 806 541.7 L 817.2 542.2 C 826.5 542.6 829.1 543 832 544.8 C 833.9 546 836.1 547 836.9 547 C 841.1 547 858.8 565.1 857.8 568.2 C 857.6 568.7 854.8 569.3 851.5 569.6 C 844.9 570 841 572.2 839.9 576.1 C 839 579.2 838.8 637.3 839.7 642.4 C 840.2 645.5 842.1 648.1 849.9 656.3 C 859.7 666.5 865.1 670 871 670 C 872.6 670 874.2 670.4 874.5 671 C 875.3 672.4 927 672.4 927 671 C 927 670.4 927.9 670 929 670 C 930.1 670 932.4 668.7 934.2 667.1 L 937.5 664.2 L 937.5 630.7 L 937.5 597.3 L 933.5 592.4 C 928.4 586.1 917.7 575.7 912.6 572.2 C 908.9 569.6 908 569.5 894.1 569.1 L 879.5 568.7 L 875 559.7 C 870.2 549.9 856.8 535.1 849.9 531.9 C 848 531 844.3 529.3 841.6 528 C 838.9 526.7 833.3 525.2 829.1 524.6 C 824.9 524 820.9 523.1 820.2 522.7 C 819.5 522.2 816.2 522 812.7 522.1 L 806.5 522.4 L 806.2 488.7 L 806 455.1 L 809.7 454.5 C 817.9 453.2 823.6 451.6 826.8 449.8 C 828.6 448.8 830.5 448 831.1 448 C 831.7 448 835.1 446 838.7 443.5 C 842.2 441 845.5 439 846 439 C 846.4 439 848 437.6 849.3 436 C 850.7 434.3 852.1 433 852.5 433 C 852.8 433 854.4 431.6 856.1 429.9 C 859 427 859.2 426.9 861.5 428.4 C 864.2 430.2 885.4 430.8 886.4 429.1 C 886.7 428.7 890.3 428 894.4 427.7 C 898.4 427.4 903.1 426.5 904.6 425.7 C 908.1 423.9 972.3 359.6 977.7 352.5 C 981.5 347.5 981.5 347.5 981.5 338 C 981.5 329.6 981.2 328.1 979.2 325.5 C 974.5 319.4 932.4 277.9 929.8 276.7 C 928.2 276.1 927 275.2 927 274.8 C 927 273.7 914.2 273.8 913.6 274.9 C 913.3 275.4 911.4 276.1 909.5 276.4 C 905.1 277.3 833.5 347.9 830.4 354.5 C 828.7 358 828.5 361 828.5 378.1 L 828.5 397.7 L 832.1 402.1 C 834.1 404.5 837.4 408.2 839.4 410.3 C 844.1 415.3 844 415.9 837.4 421.5 C 832.2 426 828.9 428.1 821.5 431.7 C 819.9 432.5 817.7 433.6 816.7 434.1 C 815.7 434.6 814.5 434.8 814 434.5 C 813.5 434.2 812.9 434.4 812.5 435 C 812.2 435.5 810.6 436 809 436 L 806 436 L 805.8 350.7 L 805.5 265.5 L 802.1 260.7 C 800.2 258.1 798.2 256 797.8 256 C 797.3 256 796.6 255.1 796.2 254.1 C 795.4 251.9 651.9 106.9 644.1 100.5 L 638.8 96 L 459.1 96.1 C 343.9 96.2 278.1 96.6 275.5 97.2 Z M 728.3 99.8 L 725 100.1 L 725 112.6 L 725 125 L 738 125 L 751 125 L 751 112.5 C 751 105.6 750.7 100 750.3 99.9 C 746.8 99.7 730.8 99.6 728.3 99.8 Z M 778.7 130.7 C 778.4 131.2 778.2 142.4 778.1 155.7 L 777.9 179.8 L 780.2 181.5 C 785.7 185.3 791.6 189 792.3 189 C 792.8 189 794.4 189.8 795.8 190.9 C 797.3 191.9 801.1 194.2 804.3 195.9 C 807.4 197.6 812.5 200.3 815.5 202 C 821.7 205.4 822.7 205.6 824.9 203.6 C 826.4 202.4 832.1 199.1 841 194.4 C 842.9 193.3 844.7 192.2 845 191.9 C 845.3 191.6 847.6 190.5 850.2 189.4 C 852.9 188.4 855 187.2 855 186.8 C 855 186.4 856.6 185.3 858.6 184.5 C 860.7 183.7 862.9 182.2 863.6 181.2 C 865.5 178.8 865.6 136 863.8 132.7 C 863.1 131.5 862.4 130.3 862.3 130.1 C 862.2 129.9 859.9 131.2 857.2 132.9 C 854.5 134.6 851.8 136 851.2 136 C 850.6 136 849.7 136.6 849.3 137.2 C 848.9 137.9 846.5 139.5 844 140.7 C 841.5 142 838.8 143.4 838 143.9 C 822.7 153 821.5 153.3 814.7 148.8 C 811.8 146.9 805.7 143.5 801 141.1 C 796.3 138.8 789.8 135.4 786.5 133.5 C 780 129.9 779.3 129.6 778.7 130.7 Z M 834.8 245.2 C 834.6 254.7 834.9 263.1 835.4 263.8 C 836.1 264.7 840.3 265 852.9 264.8 L 869.5 264.5 L 869.8 247.6 C 870 236 869.7 230.3 868.9 229.4 C 868 228.3 864.1 228 851.4 228 L 835.1 228 L 834.8 245.2 Z M 174.6 698.6 C 174.3 699.5 174 705.5 174 712.1 L 174 724 L 187.5 724 L 201 724 L 201 712.4 C 201 696.4 201.5 697 187.1 697 C 177.2 697 175.1 697.3 174.6 698.6 Z M 114 803.3 L 114 828.7 L 117.8 831.1 C 119.8 832.5 122.4 834.1 123.5 834.7 C 131.2 839.3 134.4 841 135.1 841 C 135.6 841 136 841.4 136 842 C 136 842.5 136.5 843 137.1 843 C 137.7 843 140.5 844.5 143.3 846.4 C 146.2 848.3 150.4 850.4 152.6 851 C 157.4 852.4 156.6 852.7 182.5 839.2 L 197.5 831.3 L 197.8 805.1 C 198.1 776.8 198.1 776.8 192.7 781 C 191.3 782.1 189.8 783 189.3 783 C 187.3 783 161.5 797.4 160.4 799.1 C 158.8 801.8 152 799.3 143.8 793.1 C 142.4 791.9 140.6 791 139.9 791 C 139.3 791 137.3 789.9 135.5 788.6 C 133.8 787.3 130.2 785.2 127.4 783.9 C 124.7 782.7 121.8 781.1 121 780.4 C 120.2 779.7 118.3 778.8 116.8 778.5 L 114 777.8 L 114 803.3 Z"/>
  <g id="mascot-body-group">
    <path id="mascot-body-path" fill-rule="evenodd" d="M 275.5 97.2 C 271.6 98.2 268.9 99.2 262 102.4 C 245.4 109.9 231.4 126.2 228.1 141.9 C 227.5 144.9 226.4 148 225.7 148.8 C 224.8 150 224.4 182.8 224 293.4 L 223.5 436.5 L 218.5 436.2 C 215.8 436 211.7 435 209.5 434 C 207.3 433.1 203.8 431.5 201.7 430.6 C 195.5 427.9 180 411.9 180 408.1 C 180 407.5 179 405.4 177.8 403.3 C 176.7 401.2 175.1 396.8 174.4 393.5 L 173.1 387.5 L 185.1 375.5 C 191.6 368.9 197 363.1 197 362.6 C 197 362.2 198 361 199.3 360 C 201.5 358.2 201.5 357.7 201.5 337.7 L 201.5 317.2 L 198.3 312.6 C 196.5 310 195 307.7 195 307.4 C 195 307.2 191.6 303.6 187.5 299.5 C 183.4 295.5 180 291.6 180 291.1 C 180 290.5 179.5 290 179 290 C 177.9 290 136 248.5 136 247.5 C 136 246.5 133.2 244 132.1 244 C 131.6 244 130.3 242.6 129.3 241 C 128.4 239.3 127 238 126.4 238 C 125.8 238 125 237.1 124.7 236 C 124.4 234.9 122.9 233.5 121.3 232.9 C 119.8 232.3 117.7 231.2 116.8 230.3 C 113.7 227.5 99.7 228.3 95.1 231.4 C 89.5 235.3 47.2 279.1 44.8 283.6 C 41.2 290 41.7 298.6 46.1 305 C 48 307.7 49.8 310 50.3 310 C 50.7 310 51 310.6 51 311.3 C 51 312 67.5 329.2 87.7 349.6 C 128.5 390.7 126.2 389 140 389 C 143.2 389 146.2 389.4 146.5 390 C 146.8 390.5 148.6 391 150.3 391 C 153.9 391 154.6 392.1 157.5 402.5 C 159.3 409.1 164.8 421 166 421 C 166.4 421 167.1 422.1 167.4 423.5 C 168.2 426.7 182.3 440.8 187.5 443.6 C 202.7 451.7 206.1 453 215.3 454.3 L 223.5 455.5 L 223.8 477.1 C 224 495.4 223.8 498.9 222.5 500 C 221.7 500.7 221 500.9 221 500.5 C 221 500.1 220.4 500.2 219.8 500.7 C 219.1 501.2 215.8 502.3 212.5 503 C 209.2 503.7 205.8 504.9 205 505.5 C 204.2 506.2 202.4 507.1 201 507.5 C 199.6 507.9 195.9 510 192.6 512.1 C 189.4 514.3 186.4 516 186 516 C 185.6 516 185 516.7 184.6 517.5 C 184.3 518.3 183.6 519 183 519 C 181.3 519 172.1 528 169.4 532.2 L 167.1 535.8 L 149.3 536.2 L 131.4 536.5 L 126.5 539.7 C 121.7 542.8 112.3 552.1 65.8 599.7 C 42.8 623.2 42 624.3 42 633.8 C 42 639.2 43.9 643.8 48.2 648.6 C 50.1 650.8 52 653.3 52.3 654.3 C 52.7 655.2 53.7 656.3 54.7 656.7 C 57.3 657.7 60 660.3 60 661.7 C 60 662.4 60.5 663 61.1 663 C 62.3 663 65 665.5 65 666.6 C 65 667.8 92.4 694.9 93.8 695 C 94.4 695 95 695.3 95 695.7 C 95 697.4 101.4 700 105.3 700 C 114 700 117.8 696.9 153.9 660.6 C 205.8 608.3 201.5 614.8 201.5 588.4 L 201.5 569.3 L 198.5 564.9 C 196.9 562.5 193.3 558.2 190.5 555.5 C 182.6 547.7 182.5 547.6 184.6 544 C 185.6 542.4 187 541 187.7 541 C 188.4 541 189 540.6 189 540 C 189 538.6 192.2 535 193.5 535 C 194.1 535 195.1 534.1 195.8 533 C 196.5 531.9 197.5 531 198 531 C 198.6 531 201.3 529.4 204.1 527.5 C 206.9 525.6 209.9 524 210.6 524 C 211.4 524 213.7 523.1 215.7 522 C 217.8 520.9 220.5 520 221.7 520 L 223.9 520 L 224.2 662.2 C 224.5 795.4 224.6 804.7 226.2 807.5 C 227.2 809.1 228 811.2 228 812 C 228 817.7 236.3 832.1 244.2 840.1 C 253.3 849.4 270.4 857 281.9 857 C 283.5 857 285.2 857.4 285.5 858 C 286.4 859.4 320.7 859.3 321.5 858 C 322 857.2 322.6 857.2 323.5 858 C 324.4 858.8 325 858.8 325.5 858 C 327.3 855.1 330.2 859.9 333.6 871.5 C 334.5 874.8 335.7 877.9 336.1 878.5 C 336.5 879 337.7 881.7 338.7 884.5 C 339.8 887.2 343.2 892.8 346.3 896.9 C 349.4 900.9 352 904.6 352 905.1 C 352 905.6 352.7 906 353.5 906 C 354.3 906 355 906.7 355 907.5 C 355 908.3 355.6 909 356.4 909 C 357.2 909 359 910.3 360.3 912 C 361.7 913.6 363.2 915 363.6 915 C 364 915 365.7 916 367.4 917.3 C 369.1 918.6 373 920.5 376 921.5 C 379 922.4 382.8 923.9 384.3 924.7 C 390.2 927.8 422 927.3 422 924.1 C 422 923.8 424.1 922.8 426.7 922 C 434.5 919.8 443.8 912.6 452.4 902.2 C 458.1 895.4 465 883.1 465 879.9 C 465 878.9 465.5 877.8 466 877.5 C 466.6 877.2 467 875.8 467 874.4 C 467 873.1 467.4 872 467.9 872 C 468.4 872 469.1 869.9 469.4 867.2 C 470.7 858.1 467 859 504.1 859 C 526.1 859 537 858.7 537 858 C 537 857.3 541 857 548.2 857.2 C 561.3 857.5 560.6 857 563.6 870.5 C 565.4 878.6 566 880.3 569.9 887.5 C 571.1 889.7 573 893.5 574.2 896 C 576.8 901.2 592.3 917 595 917 C 595.9 917 597.3 917.6 597.9 918.3 C 598.5 919.1 600.9 920.5 603.2 921.5 C 605.6 922.4 608.9 924 610.5 924.9 C 614.9 927.2 643.4 927.3 647.1 924.9 C 648.4 924 651.1 922.9 652.9 922.5 C 654.8 922.1 658 920.8 659.9 919.7 C 661.9 918.6 664.8 917 666.4 916.2 C 669.5 914.6 685 899.2 685 897.8 C 685 897.3 687 894 689.4 890.6 C 692.5 886.2 694.5 881.8 696 876.1 C 697.2 871.6 698.6 867.7 699.1 867.4 C 699.6 867.1 700 865.8 700 864.5 C 700 863.2 700.5 861 701.1 859.6 L 702.3 857.1 L 727.4 857.1 C 756 857 760.9 856.5 770.5 851.8 C 776.1 849.1 778.4 847.7 779.3 846.2 C 779.7 845.6 780.7 845 781.4 845 C 782.9 845 795 832.5 795 831 C 795 830.5 796.4 827.9 798 825.3 C 799.7 822.7 801 819.9 801 819.1 C 801 818.2 801.7 816.3 802.5 814.7 C 804.3 811.2 806 799 806 789.4 L 806 782 L 825.7 782 C 845.3 782 845.5 782 850.7 779.2 C 853.6 777.7 856 776.1 856 775.7 C 856 775.3 857 773.6 858.3 771.9 C 860.5 768.9 860.5 768.4 860.8 732.7 C 861.1 693.1 860.8 690.1 855.8 683.8 C 850.4 676.9 847.2 676.1 825.5 675.8 L 806.5 675.5 L 806.2 608.6 L 806 541.7 L 817.2 542.2 C 826.5 542.6 829.1 543 832 544.8 C 833.9 546 836.1 547 836.9 547 C 841.1 547 858.8 565.1 857.8 568.2 C 857.6 568.7 854.8 569.3 851.5 569.6 C 844.9 570 841 572.2 839.9 576.1 C 839 579.2 838.8 637.3 839.7 642.4 C 840.2 645.5 842.1 648.1 849.9 656.3 C 859.7 666.5 865.1 670 871 670 C 872.6 670 874.2 670.4 874.5 671 C 875.3 672.4 927 672.4 927 671 C 927 670.4 927.9 670 929 670 C 930.1 670 932.4 668.7 934.2 667.1 L 937.5 664.2 L 937.5 630.7 L 937.5 597.3 L 933.5 592.4 C 928.4 586.1 917.7 575.7 912.6 572.2 C 908.9 569.6 908 569.5 894.1 569.1 L 879.5 568.7 L 875 559.7 C 870.2 549.9 856.8 535.1 849.9 531.9 C 848 531 844.3 529.3 841.6 528 C 838.9 526.7 833.3 525.2 829.1 524.6 C 824.9 524 820.9 523.1 820.2 522.7 C 819.5 522.2 816.2 522 812.7 522.1 L 806.5 522.4 L 806.2 488.7 L 806 455.1 L 809.7 454.5 C 817.9 453.2 823.6 451.6 826.8 449.8 C 828.6 448.8 830.5 448 831.1 448 C 831.7 448 835.1 446 838.7 443.5 C 842.2 441 845.5 439 846 439 C 846.4 439 848 437.6 849.3 436 C 850.7 434.3 852.1 433 852.5 433 C 852.8 433 854.4 431.6 856.1 429.9 C 859 427 859.2 426.9 861.5 428.4 C 864.2 430.2 885.4 430.8 886.4 429.1 C 886.7 428.7 890.3 428 894.4 427.7 C 898.4 427.4 903.1 426.5 904.6 425.7 C 908.1 423.9 972.3 359.6 977.7 352.5 C 981.5 347.5 981.5 347.5 981.5 338 C 981.5 329.6 981.2 328.1 979.2 325.5 C 974.5 319.4 932.4 277.9 929.8 276.7 C 928.2 276.1 927 275.2 927 274.8 C 927 273.7 914.2 273.8 913.6 274.9 C 913.3 275.4 911.4 276.1 909.5 276.4 C 905.1 277.3 833.5 347.9 830.4 354.5 C 828.7 358 828.5 361 828.5 378.1 L 828.5 397.7 L 832.1 402.1 C 834.1 404.5 837.4 408.2 839.4 410.3 C 844.1 415.3 844 415.9 837.4 421.5 C 832.2 426 828.9 428.1 821.5 431.7 C 819.9 432.5 817.7 433.6 816.7 434.1 C 815.7 434.6 814.5 434.8 814 434.5 C 813.5 434.2 812.9 434.4 812.5 435 C 812.2 435.5 810.6 436 809 436 L 806 436 L 805.8 350.7 L 805.5 265.5 L 802.1 260.7 C 800.2 258.1 798.2 256 797.8 256 C 797.3 256 796.6 255.1 796.2 254.1 C 795.4 251.9 651.9 106.9 644.1 100.5 L 638.8 96 L 459.1 96.1 C 343.9 96.2 278.1 96.6 275.5 97.2 Z M 728.3 99.8 L 725 100.1 L 725 112.6 L 725 125 L 738 125 L 751 125 L 751 112.5 C 751 105.6 750.7 100 750.3 99.9 C 746.8 99.7 730.8 99.6 728.3 99.8 Z M 778.7 130.7 C 778.4 131.2 778.2 142.4 778.1 155.7 L 777.9 179.8 L 780.2 181.5 C 785.7 185.3 791.6 189 792.3 189 C 792.8 189 794.4 189.8 795.8 190.9 C 797.3 191.9 801.1 194.2 804.3 195.9 C 807.4 197.6 812.5 200.3 815.5 202 C 821.7 205.4 822.7 205.6 824.9 203.6 C 826.4 202.4 832.1 199.1 841 194.4 C 842.9 193.3 844.7 192.2 845 191.9 C 845.3 191.6 847.6 190.5 850.2 189.4 C 852.9 188.4 855 187.2 855 186.8 C 855 186.4 856.6 185.3 858.6 184.5 C 860.7 183.7 862.9 182.2 863.6 181.2 C 865.5 178.8 865.6 136 863.8 132.7 C 863.1 131.5 862.4 130.3 862.3 130.1 C 862.2 129.9 859.9 131.2 857.2 132.9 C 854.5 134.6 851.8 136 851.2 136 C 850.6 136 849.7 136.6 849.3 137.2 C 848.9 137.9 846.5 139.5 844 140.7 C 841.5 142 838.8 143.4 838 143.9 C 822.7 153 821.5 153.3 814.7 148.8 C 811.8 146.9 805.7 143.5 801 141.1 C 796.3 138.8 789.8 135.4 786.5 133.5 C 780 129.9 779.3 129.6 778.7 130.7 Z M 834.8 245.2 C 834.6 254.7 834.9 263.1 835.4 263.8 C 836.1 264.7 840.3 265 852.9 264.8 L 869.5 264.5 L 869.8 247.6 C 870 236 869.7 230.3 868.9 229.4 C 868 228.3 864.1 228 851.4 228 L 835.1 228 L 834.8 245.2 Z M 174.6 698.6 C 174.3 699.5 174 705.5 174 712.1 L 174 724 L 187.5 724 L 201 724 L 201 712.4 C 201 696.4 201.5 697 187.1 697 C 177.2 697 175.1 697.3 174.6 698.6 Z M 114 803.3 L 114 828.7 L 117.8 831.1 C 119.8 832.5 122.4 834.1 123.5 834.7 C 131.2 839.3 134.4 841 135.1 841 C 135.6 841 136 841.4 136 842 C 136 842.5 136.5 843 137.1 843 C 137.7 843 140.5 844.5 143.3 846.4 C 146.2 848.3 150.4 850.4 152.6 851 C 157.4 852.4 156.6 852.7 182.5 839.2 L 197.5 831.3 L 197.8 805.1 C 198.1 776.8 198.1 776.8 192.7 781 C 191.3 782.1 189.8 783 189.3 783 C 187.3 783 161.5 797.4 160.4 799.1 C 158.8 801.8 152 799.3 143.8 793.1 C 142.4 791.9 140.6 791 139.9 791 C 139.3 791 137.3 789.9 135.5 788.6 C 133.8 787.3 130.2 785.2 127.4 783.9 C 124.7 782.7 121.8 781.1 121 780.4 C 120.2 779.7 118.3 778.8 116.8 778.5 L 114 777.8 L 114 803.3 Z M 276.5 120.2 C 262.8 125 252.8 135.2 248.6 149 C 246.7 155.3 246.6 159.3 246.1 298 C 245.6 406.4 245.2 441.1 244.3 443.2 C 243.3 445.3 243.3 446.6 244.3 449.2 C 246 453.9 246 501.2 244.2 506.1 C 243.2 509 243.2 510.3 244.2 512.6 C 245.2 514.9 245.6 545.3 246.1 657.5 C 246.6 784.5 246.8 800 248.2 804.7 C 255.8 828.8 273.7 838.3 308.5 836.6 C 334.3 835.3 336.6 835.7 343.5 842.5 C 347 846.1 353 856.9 353 859.8 C 353 860.5 354.4 864.8 356.2 869.3 C 364.7 891.3 382.5 905 402.7 905 C 418 905 434.7 894 441.3 879.5 C 444.2 873.3 449 859.4 449 857.3 C 449.1 854.2 452.6 847.6 456.1 844.1 C 462.4 837.8 463.1 837.7 501.5 836.7 C 569.2 835 566.6 834.7 574.9 843 C 580 848.1 581.5 851.4 584.4 863.5 C 591.8 894.9 617.2 911.8 643.3 902.6 C 653.4 899 659.3 894.8 665.3 886.7 C 673 876.2 673.4 875.5 677 863.5 C 680.9 850.4 682.8 846.3 687.2 842 C 693.3 835.8 694.6 835.6 726 835.2 C 757.7 834.9 758.1 834.8 768.1 827.4 C 778.3 820 782.7 809.5 784 790.4 C 784.9 775.9 786.1 772 791.1 767.1 C 796.9 761.3 799.5 760.7 820.3 760.2 L 839 759.8 L 839 729 L 839 698.2 L 820.8 697.8 C 806.9 697.5 801.6 697 798.8 695.8 C 794 693.7 787.4 686.8 785.8 682.2 C 784 677.1 783.9 540.2 785.7 535.2 C 786.6 532.7 786.6 531.3 785.7 528.7 C 784.1 524.4 784 452.8 785.6 448.5 C 786.4 446.3 786.4 444.8 785.6 443 C 784.8 441.2 784.4 415.6 784.2 357.2 L 783.9 273.9 L 779.8 268.7 C 777.6 265.8 743.3 230.8 703.6 190.7 L 631.4 118 L 456.9 118 C 282.6 118.1 282.5 118.1 276.5 120.2 Z M 93.5 263.2 C 86.4 270.5 77 280.2 72.7 284.7 L 64.8 292.9 L 67.8 297 C 69.4 299.3 85.2 315.9 102.9 333.9 L 135 366.7 L 142.2 367.3 C 146.2 367.6 151.7 368.4 154.3 369.2 L 159.2 370.5 L 169.6 359.8 L 180 349.2 L 180 336.6 L 180 324.1 L 176.9 320.6 C 173.9 317.2 107.1 250 106.7 250 C 106.6 250 100.7 256 93.5 263.2 Z M 914 300.6 C 911.1 303.3 895.5 318.5 879.3 334.5 L 850 363.5 L 850 376.5 L 850.1 389.5 L 856 395.9 C 859.3 399.5 862.2 403.1 862.5 404 C 863.7 407.8 872.8 408.8 886.8 406.7 L 895.1 405.5 L 927.1 373.5 C 944.7 355.9 959.3 340.4 959.7 339.1 C 960.2 337.1 957.5 334 939.7 316.2 L 919.2 295.7 L 914 300.6 Z M 103.7 592.2 C 85.2 611.1 68.6 628.1 67 630.1 L 64.1 633.7 L 73.8 643.9 C 79.1 649.5 88.6 659.3 94.8 665.6 L 106.2 677.2 L 111.8 671.8 C 125.6 658.9 175.9 607.2 177.9 604 C 179.7 600.9 180 599 180 588.4 L 180 576.3 L 174.7 570.9 C 171.8 567.9 168.1 563.8 166.6 561.7 L 163.8 558 L 150.6 558 L 137.5 557.9 L 103.7 592.2 Z M 864.8 589.7 L 861 591.3 L 861 613.9 L 861 636.6 L 866.9 642.4 C 874.2 649.6 875.5 649.9 898.8 650 L 916 650 L 916 627.6 L 916 605.1 L 908.8 598.1 L 901.6 591 L 891.4 591 C 882.5 591 874.8 590.2 870 588.7 C 869.2 588.4 866.8 588.9 864.8 589.7 Z"/>
  </g>
  <path id="mascot-eye-left-path" d="M445.338440,471.851562 
    C443.176758,493.788635 436.942841,513.715637 422.903229,530.550293 
    C414.712860,540.371216 404.428955,546.983215 391.426178,547.988098 
    C380.129303,548.861206 370.128235,544.991821 361.551147,537.658081 
    C346.242279,524.568481 338.807251,507.057800 334.925110,487.966980 
    C330.108337,464.279877 331.868622,440.935730 341.490295,418.566833 
    C348.688934,401.831055 359.017548,387.645721 377.318176,381.896362 
    C395.780701,376.096130 410.714722,383.333527 422.873901,396.788544 
    C435.662811,410.940399 441.511841,428.347931 444.441101,446.954803 
    C445.723877,455.103149 445.097168,463.233063 445.338440,471.851562 
  z"/>
  <path id="mascot-eye-right-path" d="M580.705505,471.768982 
    C579.774292,452.215668 582.605713,433.818390 590.797302,416.428589 
    C595.017090,407.470551 600.340088,399.277374 607.772888,392.579346 
    C627.716553,374.607117 653.145935,376.202209 670.873657,396.487671 
    C682.259460,409.516235 688.856201,424.818604 691.954407,441.620636 
    C696.671631,467.203156 693.889832,491.915649 682.163452,515.365479 
    C678.942444,521.806519 674.902405,527.726013 669.904602,532.915588 
    C649.577148,554.023315 621.761536,553.062683 602.886780,530.571594 
    C591.909119,517.490662 585.759705,502.182648 582.712219,485.533203 
    C581.906189,481.129486 581.375549,476.675323 580.705505,471.768982 
  z"/>
</svg>
