<svg xmlns="http://www.w3.org/2000/svg" xmlns:xlink="http://www.w3.org/1999/xlink" viewBox="0 0 1024 1024">
  <defs><linearGradient id="msBg" x1="0" y1="0" x2="1" y2="1">
  <stop offset="0" stop-color="#a7e8c4"/><stop offset="0.5" stop-color="#7fd9b0"/><stop offset="1" stop-color="#5fc99a"/>
</linearGradient>
<linearGradient id="msPanel" x1="0" y1="0" x2="1" y2="1">
  <stop offset="0" stop-color="#d6f5e3"/><stop offset="0.55" stop-color="#e8faf0"/><stop offset="1" stop-color="#f3fdf7"/>
</linearGradient>
  <!-- ===================================================================
       MASCOT PATHS LIBRARY — documentghost
       Generated by flatten-v2.mjs. viewBox 0 0 1024 1024.
       Flattened native coords (absolute M/L/C, no <g transform>).
       - mascot-background : solid silhouette (gradient-filled, behind)
       - mascot-body-path  : outer + inner contour,
                             fill-rule="evenodd" => chunky #1a2e2a ring
       - mascot-eye-left/right-path : separate paths (engine blink + tracking)
       =================================================================== -->
  <path id="mascot-background" d="M 297.5 133 C 296.4 133.5 294.4 133.9 293.1 133.9 C 290.9 134 286.2 136.2 275.3 142.1 C 272.9 143.3 270.8 145.1 270.5 145.9 C 270.2 146.8 269 148 267.8 148.5 C 265.6 149.5 257.2 160.9 254.9 166 C 249.4 178.2 249.7 169.9 249.3 311.5 C 249 397.5 248.6 441.8 247.9 442.6 C 246.6 444.2 240.9 443.4 235.5 441 C 233.3 440 229.9 438.6 228 437.9 C 217.7 434 206.3 418.1 203.1 403 L 202.1 398.6 L 214.6 385.8 C 224.8 375.3 227 372.5 227 370.1 C 227 368.5 227.5 366.8 228 366.5 C 228.6 366.1 229 360.3 229 352.5 C 229 344.7 228.6 338.9 228 338.5 C 227.5 338.2 227 336.8 227 335.6 C 227 334.3 225.9 331.6 224.5 329.6 C 223.1 327.6 222 325.7 222 325.4 C 222 325.1 209.9 312.8 195 298.1 C 180.2 283.3 168 270.8 168 270.3 C 168 269.8 167 268.8 165.8 268 C 162.3 265.6 158.4 261.6 157.7 259.8 C 155.7 254.2 137.6 251.6 130.7 255.9 C 126.7 258.4 86 300.2 84.1 303.8 C 82.3 307.2 82.2 317.7 84 321 C 87.4 327.4 153.3 395 158.6 397.5 C 160.5 398.4 166.7 399.6 172.3 400.1 C 184.3 401.2 184.4 401.4 187.1 411.1 C 188.3 415.2 191 421.5 193.1 425.2 C 195.3 428.8 197 432.2 197 432.5 C 197 434.7 206.3 443.7 213.3 448.3 C 223.1 454.7 226.7 456.4 234 458 C 237 458.7 240.4 459.6 241.5 460.1 C 242.6 460.5 244.6 461 246 461.2 L 248.5 461.5 L 248.8 480.4 C 248.9 492.6 248.7 499.7 248 500.5 C 247.4 501.2 243.7 502.6 239.7 503.5 C 235.7 504.5 231.9 505.7 231.2 506.3 C 230.5 506.8 227 508.8 223.4 510.6 C 214.6 515 210.8 517.9 202.4 526.6 L 195.2 534 L 181 534 C 161.9 534 161.9 534 141 555 C 105 590.9 84.9 612.1 83.5 615.5 C 81.6 620 81.6 625.5 83.6 631.3 C 85.5 636.9 128 681.1 133.3 682.9 C 138.9 684.9 145.2 684.2 150.1 681.2 C 154 678.7 207.1 625.9 219.2 612.5 C 224.2 607 227 602.2 227 599.1 C 227 598 227.5 596.8 228 596.5 C 229.3 595.7 229.3 571.3 228 570.5 C 227.4 570.2 227 568.4 227 566.6 C 227 562.8 223.7 557.9 216.1 550.5 C 209.9 544.5 209.9 544.7 215.8 538.4 C 224.5 529 239.8 520 247.1 520 C 248.9 520 248.9 525.1 249.2 649.7 L 249.5 779.5 L 252.3 788.2 C 258 806.7 273.1 821.5 290.7 826.2 C 297.2 828 302.1 828.3 320.9 828.6 C 334.9 828.8 343.7 829.3 344.5 830 C 345.2 830.6 346.4 833.4 347.1 836.3 C 347.7 839.2 350 845.2 352.1 849.8 C 354.3 854.3 356 858.3 356 858.6 C 356 859.9 366.6 872.7 371 876.7 C 374.9 880.4 385.5 886.3 394.5 890 C 399 891.8 417.5 892.5 424.2 891.1 C 430.3 889.8 442 884.2 445.6 880.9 C 446.7 879.9 448 879 448.6 878.9 C 451.8 878.7 469 853.8 469 849.3 C 469 848.1 469.4 846.9 469.9 846.6 C 470.4 846.2 471.4 842.9 472 839.2 C 474 828.4 470 829.4 515.1 828.7 C 557.8 828.1 557 828 557 833.4 C 557.1 835.1 557.9 838.3 559 840.5 C 560.1 842.7 560.9 845.3 561 846.4 C 561 848.3 567.2 861.2 569.4 864 C 570.1 864.8 571.2 866.8 572 868.4 C 573.7 871.7 585.8 883 587.8 883 C 588.5 883 590.8 884.1 593 885.5 C 601.3 890.7 604.6 891.5 618.5 891.5 C 631.4 891.4 641.1 889.7 645 886.6 C 645.8 885.9 648.6 884.4 651.2 883.2 C 660.8 878.6 676 859.5 679.4 847.9 C 680.2 844.8 681.7 841 682.5 839.4 C 683.3 837.8 684 835.5 684 834.2 C 684 828 683.9 828.1 708.8 828.1 C 721.3 828.1 733.8 827.6 736.5 827.1 C 743.3 825.7 752.2 822.5 753.4 820.8 C 754 820.1 755.8 818.8 757.3 818 C 763.3 815 774.2 800.6 776.5 793 C 776.6 792.7 777.1 791.4 777.7 790 C 779.3 786.1 781 773.9 781 766.1 L 781 759 L 799.6 759 C 820.7 759 823.9 758.1 828.3 751 C 830.4 747.6 830.5 746.5 830.8 714 C 831.2 678.3 830.8 675.2 826.4 669.3 C 822.3 663.8 821 663.5 800.5 663 L 781.5 662.5 L 781.2 601.2 L 781 540 L 789.5 540 C 804.5 540 816.1 545.8 824.7 557.4 C 829.9 564.5 829.9 565.1 823.5 565.5 C 816.6 566 813.1 567.5 812 570.5 C 810.9 573.4 810.6 625.1 811.7 631.4 C 812.2 634.4 814.1 637.1 820.9 644.2 C 833.5 657.5 833 657.3 864 657.8 C 891.4 658.2 895 657.8 899.1 653.4 L 901.5 650.8 L 901.5 620.5 C 901.5 594 901.3 589.9 899.9 588.8 C 899 588.1 896.6 585.1 894.6 582.2 C 892.5 579.4 890.4 577 889.8 577 C 889.2 577 887.4 575.5 885.8 573.6 C 880.3 567.1 876.1 565.6 861.7 565.2 L 848.9 564.8 L 846.1 559.1 C 844.5 556 841.7 551.5 839.8 549.1 C 838 546.7 836 544 835.5 543 C 834.9 542.1 831.9 539.2 828.6 536.6 C 823.4 532.3 820.4 530.5 809.5 525.4 C 806.1 523.8 793.4 522 785.9 522 L 781 522 L 781 491.7 L 781 461.3 L 783.3 460.3 C 784.5 459.7 788.1 458.7 791.3 458.1 C 801.8 456.2 813.9 449.3 824.9 439.1 C 828.4 435.8 829.6 435.2 831 436 C 835.3 438.3 865.3 436.5 870.8 433.6 C 872.4 432.8 875.7 430 878.1 427.5 C 880.4 425 883 423 883.7 423 C 884.4 423 885 422.5 885 421.8 C 885 421.2 897.1 408.5 911.8 393.6 C 939.9 365.2 942 362.5 942 354.2 C 942 343.7 942.2 344 919.6 321.2 C 893 294.4 893.3 294.5 883.4 295.3 C 879 295.6 874.8 296.5 873.4 297.5 C 872 298.4 855.9 314.1 837.5 332.3 C 797.9 371.8 800.6 367.4 801.1 391.2 C 801.5 409.6 801.3 409 810.9 418.7 C 816.1 423.9 816.1 423.7 809.3 429.7 C 802.2 435.8 791.4 441.7 785.5 442.6 L 781 443.2 L 781 367.2 C 781 325.4 780.7 289.9 780.4 288.2 C 780 286.5 777.7 282.7 775.3 279.8 C 768.7 272.1 638.4 140.7 632.6 136 L 627.7 132 L 463.6 132.1 C 373.4 132.1 298.6 132.5 297.5 133 Z M 710.3 134.8 L 707 135.1 L 707 147.1 L 707 159.1 L 718.8 158.8 L 730.5 158.5 L 730.8 147.2 C 731 138 730.8 135.9 729.6 135.4 C 727.8 134.7 715.1 134.3 710.3 134.8 Z M 756.2 164.3 C 755.6 165 755.2 174.5 755.1 187.2 L 754.9 208.9 L 759 211.5 C 761.2 212.9 766.1 215.7 769.8 217.6 C 773.5 219.6 777.2 221.8 778 222.5 C 780.3 224.4 793.7 231 795.4 231 C 796.2 231 798.5 230 800.5 228.9 C 805.5 225.9 811.4 222.7 819.1 218.8 C 827.4 214.5 833.3 210.9 834.2 209.6 C 835.3 208 835.2 168.5 834.1 165.6 C 833 162.9 830.6 162.9 827.3 165.8 C 826.3 166.8 822.5 169 819 170.9 C 815.4 172.8 811.8 174.8 811 175.5 C 809 177 796.4 183 795.1 183 C 794 183 790.6 181.2 775.1 172.6 C 770.5 170.1 766.3 168 765.8 168 C 765.2 168 763.6 167.2 762.2 166.2 C 757.8 163.1 757.3 163 756.2 164.3 Z M 807.8 268.7 C 807.6 277.4 807.6 284.8 807.8 285.2 C 808 285.7 815.1 286 823.6 286 L 839 286 L 838.8 269.7 L 838.5 253.5 L 823.3 253.2 L 808.1 252.9 L 807.8 268.7 Z M 203.7 682.7 C 203.3 683 203 688.4 203 694.7 L 203 706 L 215 706 L 227 706 L 227 695.6 C 227 681.1 227.8 682 215.1 682 C 209.2 682 204 682.3 203.7 682.7 Z M 148 779.5 L 148 803 L 152.3 805.1 C 154.6 806.3 158.9 808.8 161.8 810.6 C 166.9 813.9 174.7 818.3 182.4 822.3 L 186.2 824.3 L 197.4 818.5 C 203.5 815.3 209.2 812.2 210 811.5 C 210.8 810.9 213.1 809.7 215 809 C 216.9 808.3 220 806.8 221.8 805.8 L 225 803.8 L 225 780.4 C 225 766.6 224.6 757 224.1 757 C 222.4 757 209.6 763.2 206.5 765.5 C 204.9 766.8 202.4 768.1 201 768.5 C 199.6 768.9 196.4 770.8 193.9 772.6 C 187.9 776.9 186.2 776.9 178.9 772 C 175.6 769.8 172.4 768 171.8 768 C 171.2 768 169.3 767 167.6 765.7 C 163.3 762.4 154.1 757.5 150.8 756.7 L 148 756 L 148 779.5 Z"/>
  <g id="mascot-body-group">
    <path id="mascot-body-path" fill-rule="evenodd" d="M 297.5 133 C 296.4 133.5 294.4 133.9 293.1 133.9 C 290.9 134 286.2 136.2 275.3 142.1 C 272.9 143.3 270.8 145.1 270.5 145.9 C 270.2 146.8 269 148 267.8 148.5 C 265.6 149.5 257.2 160.9 254.9 166 C 249.4 178.2 249.7 169.9 249.3 311.5 C 249 397.5 248.6 441.8 247.9 442.6 C 246.6 444.2 240.9 443.4 235.5 441 C 233.3 440 229.9 438.6 228 437.9 C 217.7 434 206.3 418.1 203.1 403 L 202.1 398.6 L 214.6 385.8 C 224.8 375.3 227 372.5 227 370.1 C 227 368.5 227.5 366.8 228 366.5 C 228.6 366.1 229 360.3 229 352.5 C 229 344.7 228.6 338.9 228 338.5 C 227.5 338.2 227 336.8 227 335.6 C 227 334.3 225.9 331.6 224.5 329.6 C 223.1 327.6 222 325.7 222 325.4 C 222 325.1 209.9 312.8 195 298.1 C 180.2 283.3 168 270.8 168 270.3 C 168 269.8 167 268.8 165.8 268 C 162.3 265.6 158.4 261.6 157.7 259.8 C 155.7 254.2 137.6 251.6 130.7 255.9 C 126.7 258.4 86 300.2 84.1 303.8 C 82.3 307.2 82.2 317.7 84 321 C 87.4 327.4 153.3 395 158.6 397.5 C 160.5 398.4 166.7 399.6 172.3 400.1 C 184.3 401.2 184.4 401.4 187.1 411.1 C 188.3 415.2 191 421.5 193.1 425.2 C 195.3 428.8 197 432.2 197 432.5 C 197 434.7 206.3 443.7 213.3 448.3 C 223.1 454.7 226.7 456.4 234 458 C 237 458.7 240.4 459.6 241.5 460.1 C 242.6 460.5 244.6 461 246 461.2 L 248.5 461.5 L 248.8 480.4 C 248.9 492.6 248.7 499.7 248 500.5 C 247.4 501.2 243.7 502.6 239.7 503.5 C 235.7 504.5 231.9 505.7 231.2 506.3 C 230.5 506.8 227 508.8 223.4 510.6 C 214.6 515 210.8 517.9 202.4 526.6 L 195.2 534 L 181 534 C 161.9 534 161.9 534 141 555 C 105 590.9 84.9 612.1 83.5 615.5 C 81.6 620 81.6 625.5 83.6 631.3 C 85.5 636.9 128 681.1 133.3 682.9 C 138.9 684.9 145.2 684.2 150.1 681.2 C 154 678.7 207.1 625.9 219.2 612.5 C 224.2 607 227 602.2 227 599.1 C 227 598 227.5 596.8 228 596.5 C 229.3 595.7 229.3 571.3 228 570.5 C 227.4 570.2 227 568.4 227 566.6 C 227 562.8 223.7 557.9 216.1 550.5 C 209.9 544.5 209.9 544.7 215.8 538.4 C 224.5 529 239.8 520 247.1 520 C 248.9 520 248.9 525.1 249.2 649.7 L 249.5 779.5 L 252.3 788.2 C 258 806.7 273.1 821.5 290.7 826.2 C 297.2 828 302.1 828.3 320.9 828.6 C 334.9 828.8 343.7 829.3 344.5 830 C 345.2 830.6 346.4 833.4 347.1 836.3 C 347.7 839.2 350 845.2 352.1 849.8 C 354.3 854.3 356 858.3 356 858.6 C 356 859.9 366.6 872.7 371 876.7 C 374.9 880.4 385.5 886.3 394.5 890 C 399 891.8 417.5 892.5 424.2 891.1 C 430.3 889.8 442 884.2 445.6 880.9 C 446.7 879.9 448 879 448.6 878.9 C 451.8 878.7 469 853.8 469 849.3 C 469 848.1 469.4 846.9 469.9 846.6 C 470.4 846.2 471.4 842.9 472 839.2 C 474 828.4 470 829.4 515.1 828.7 C 557.8 828.1 557 828 557 833.4 C 557.1 835.1 557.9 838.3 559 840.5 C 560.1 842.7 560.9 845.3 561 846.4 C 561 848.3 567.2 861.2 569.4 864 C 570.1 864.8 571.2 866.8 572 868.4 C 573.7 871.7 585.8 883 587.8 883 C 588.5 883 590.8 884.1 593 885.5 C 601.3 890.7 604.6 891.5 618.5 891.5 C 631.4 891.4 641.1 889.7 645 886.6 C 645.8 885.9 648.6 884.4 651.2 883.2 C 660.8 878.6 676 859.5 679.4 847.9 C 680.2 844.8 681.7 841 682.5 839.4 C 683.3 837.8 684 835.5 684 834.2 C 684 828 683.9 828.1 708.8 828.1 C 721.3 828.1 733.8 827.6 736.5 827.1 C 743.3 825.7 752.2 822.5 753.4 820.8 C 754 820.1 755.8 818.8 757.3 818 C 763.3 815 774.2 800.6 776.5 793 C 776.6 792.7 777.1 791.4 777.7 790 C 779.3 786.1 781 773.9 781 766.1 L 781 759 L 799.6 759 C 820.7 759 823.9 758.1 828.3 751 C 830.4 747.6 830.5 746.5 830.8 714 C 831.2 678.3 830.8 675.2 826.4 669.3 C 822.3 663.8 821 663.5 800.5 663 L 781.5 662.5 L 781.2 601.2 L 781 540 L 789.5 540 C 804.5 540 816.1 545.8 824.7 557.4 C 829.9 564.5 829.9 565.1 823.5 565.5 C 816.6 566 813.1 567.5 812 570.5 C 810.9 573.4 810.6 625.1 811.7 631.4 C 812.2 634.4 814.1 637.1 820.9 644.2 C 833.5 657.5 833 657.3 864 657.8 C 891.4 658.2 895 657.8 899.1 653.4 L 901.5 650.8 L 901.5 620.5 C 901.5 594 901.3 589.9 899.9 588.8 C 899 588.1 896.6 585.1 894.6 582.2 C 892.5 579.4 890.4 577 889.8 577 C 889.2 577 887.4 575.5 885.8 573.6 C 880.3 567.1 876.1 565.6 861.7 565.2 L 848.9 564.8 L 846.1 559.1 C 844.5 556 841.7 551.5 839.8 549.1 C 838 546.7 836 544 835.5 543 C 834.9 542.1 831.9 539.2 828.6 536.6 C 823.4 532.3 820.4 530.5 809.5 525.4 C 806.1 523.8 793.4 522 785.9 522 L 781 522 L 781 491.7 L 781 461.3 L 783.3 460.3 C 784.5 459.7 788.1 458.7 791.3 458.1 C 801.8 456.2 813.9 449.3 824.9 439.1 C 828.4 435.8 829.6 435.2 831 436 C 835.3 438.3 865.3 436.5 870.8 433.6 C 872.4 432.8 875.7 430 878.1 427.5 C 880.4 425 883 423 883.7 423 C 884.4 423 885 422.5 885 421.8 C 885 421.2 897.1 408.5 911.8 393.6 C 939.9 365.2 942 362.5 942 354.2 C 942 343.7 942.2 344 919.6 321.2 C 893 294.4 893.3 294.5 883.4 295.3 C 879 295.6 874.8 296.5 873.4 297.5 C 872 298.4 855.9 314.1 837.5 332.3 C 797.9 371.8 800.6 367.4 801.1 391.2 C 801.5 409.6 801.3 409 810.9 418.7 C 816.1 423.9 816.1 423.7 809.3 429.7 C 802.2 435.8 791.4 441.7 785.5 442.6 L 781 443.2 L 781 367.2 C 781 325.4 780.7 289.9 780.4 288.2 C 780 286.5 777.7 282.7 775.3 279.8 C 768.7 272.1 638.4 140.7 632.6 136 L 627.7 132 L 463.6 132.1 C 373.4 132.1 298.6 132.5 297.5 133 Z M 710.3 134.8 L 707 135.1 L 707 147.1 L 707 159.1 L 718.8 158.8 L 730.5 158.5 L 730.8 147.2 C 731 138 730.8 135.9 729.6 135.4 C 727.8 134.7 715.1 134.3 710.3 134.8 Z M 756.2 164.3 C 755.6 165 755.2 174.5 755.1 187.2 L 754.9 208.9 L 759 211.5 C 761.2 212.9 766.1 215.7 769.8 217.6 C 773.5 219.6 777.2 221.8 778 222.5 C 780.3 224.4 793.7 231 795.4 231 C 796.2 231 798.5 230 800.5 228.9 C 805.5 225.9 811.4 222.7 819.1 218.8 C 827.4 214.5 833.3 210.9 834.2 209.6 C 835.3 208 835.2 168.5 834.1 165.6 C 833 162.9 830.6 162.9 827.3 165.8 C 826.3 166.8 822.5 169 819 170.9 C 815.4 172.8 811.8 174.8 811 175.5 C 809 177 796.4 183 795.1 183 C 794 183 790.6 181.2 775.1 172.6 C 770.5 170.1 766.3 168 765.8 168 C 765.2 168 763.6 167.2 762.2 166.2 C 757.8 163.1 757.3 163 756.2 164.3 Z M 807.8 268.7 C 807.6 277.4 807.6 284.8 807.8 285.2 C 808 285.7 815.1 286 823.6 286 L 839 286 L 838.8 269.7 L 838.5 253.5 L 823.3 253.2 L 808.1 252.9 L 807.8 268.7 Z M 203.7 682.7 C 203.3 683 203 688.4 203 694.7 L 203 706 L 215 706 L 227 706 L 227 695.6 C 227 681.1 227.8 682 215.1 682 C 209.2 682 204 682.3 203.7 682.7 Z M 148 779.5 L 148 803 L 152.3 805.1 C 154.6 806.3 158.9 808.8 161.8 810.6 C 166.9 813.9 174.7 818.3 182.4 822.3 L 186.2 824.3 L 197.4 818.5 C 203.5 815.3 209.2 812.2 210 811.5 C 210.8 810.9 213.1 809.7 215 809 C 216.9 808.3 220 806.8 221.8 805.8 L 225 803.8 L 225 780.4 C 225 766.6 224.6 757 224.1 757 C 222.4 757 209.6 763.2 206.5 765.5 C 204.9 766.8 202.4 768.1 201 768.5 C 199.6 768.9 196.4 770.8 193.9 772.6 C 187.9 776.9 186.2 776.9 178.9 772 C 175.6 769.8 172.4 768 171.8 768 C 171.2 768 169.3 767 167.6 765.7 C 163.3 762.4 154.1 757.5 150.8 756.7 L 148 756 L 148 779.5 Z M 301.1 162.7 C 294 164.1 283.7 174.1 280.6 182.5 C 279.7 185.1 277.5 433.1 278.2 455 C 278.5 463.4 278.5 498.5 278.2 507 C 277.4 532.2 279.7 776.9 280.8 780 C 283.1 786.5 288.5 792.6 294.7 795.6 L 300.5 798.5 L 324.4 798.7 C 353 799 355.3 799.5 364.4 807.9 C 369.7 812.9 372.5 817.5 375 825.6 C 382.5 849.9 394.7 862 411.8 862 C 420.5 862 424.9 860 432 852.7 C 438.2 846.4 440.2 842.3 443.5 829.7 C 448.3 811.1 456.9 802.1 472.2 800 C 480.9 798.8 552.3 798 558.9 799.1 C 572.4 801.2 581.9 810.4 586 825.2 C 591.5 845.3 595.6 852.3 605.1 858 C 611.3 861.7 612.4 862 619.1 862 C 636 862 647.2 851.4 654.1 829 C 658.8 813.4 663.3 806.8 672.6 802.1 C 678.9 798.8 686.1 798.1 710.2 798.1 L 732.1 798.1 L 738.2 794.4 C 747 789 750.1 782.1 751.1 765.7 C 752.9 737.9 762.8 729 792.3 729 L 801 729 L 801 711 L 801 693 L 792.8 693 C 772.4 693 761.5 687.9 755 675.3 C 751.2 667.9 750.9 661.2 751.4 595.9 C 751.7 561.6 751.8 531 751.7 528 C 751.4 521 751.4 462.3 751.7 455 C 751.8 452 751.7 415.1 751.4 373.1 L 750.9 296.8 L 691.7 237 C 659.1 204.1 628.8 173.8 624.3 169.6 L 616.2 162 L 459.9 162.1 C 373.9 162.2 302.4 162.5 301.1 162.7 Z M 128.6 299.9 L 115.6 312.9 L 131.1 328.6 C 139.5 337.2 152 350 158.7 357 L 170.9 369.7 L 178.7 370.8 L 186.5 371.9 L 192.8 365.7 L 199 359.6 L 199 352.1 L 199 344.6 L 170.2 315.8 L 141.5 287 L 128.6 299.9 Z M 857.7 354.3 L 830.9 380.5 L 831 388.5 L 831.1 396.5 L 836.1 401.9 L 841.1 407.2 L 849 406.8 L 857 406.5 L 883.5 380 L 910 353.5 L 897.3 340.8 L 884.5 328.1 L 857.7 354.3 Z M 144.3 593.8 L 115.2 623.6 L 127.9 636.9 L 140.5 650.2 L 169.2 621.2 C 186.8 603.4 198.2 591.2 198.6 589.6 C 198.9 588.1 199 584.2 198.8 580.9 C 198.4 575.2 198.1 574.7 193 569.5 L 187.6 564 L 180.5 564 L 173.3 564 L 144.3 593.8 Z M 841 607.9 C 841 622.3 841 622.4 843.7 625.2 C 846.4 628 846.5 628 859.2 628 L 872 628 L 872 615 L 872 602 L 868.3 598.5 C 864.7 595.3 864.1 595 857.5 595 C 853.7 594.9 848.4 594.5 845.8 594.1 L 841 593.3 L 841 607.9 Z"/>
  </g>
  <path id="mascot-eye-left-path" d="M445.338440,471.851562 
    C443.176758,493.788635 436.942841,513.715637 422.903229,530.550293 
    C414.712860,540.371216 404.428955,546.983215 391.426178,547.988098 
    C380.129303,548.861206 370.128235,544.991821 361.551147,537.658081 
    C346.242279,524.568481 338.807251,507.057800 334.925110,487.966980 
    C330.108337,464.279877 331.868622,440.935730 341.490295,418.566833 
    C348.688934,401.831055 359.017548,387.645721 377.318176,381.896362 
    C395.780701,376.096130 410.714722,383.333527 422.873901,396.788544 
    C435.662811,410.940399 441.511841,428.347931 444.441101,446.954803 
    C445.723877,455.103149 445.097168,463.233063 445.338440,471.851562 
  z"/>
  <path id="mascot-eye-right-path" d="M580.705505,471.768982 
    C579.774292,452.215668 582.605713,433.818390 590.797302,416.428589 
    C595.017090,407.470551 600.340088,399.277374 607.772888,392.579346 
    C627.716553,374.607117 653.145935,376.202209 670.873657,396.487671 
    C682.259460,409.516235 688.856201,424.818604 691.954407,441.620636 
    C696.671631,467.203156 693.889832,491.915649 682.163452,515.365479 
    C678.942444,521.806519 674.902405,527.726013 669.904602,532.915588 
    C649.577148,554.023315 621.761536,553.062683 602.886780,530.571594 
    C591.909119,517.490662 585.759705,502.182648 582.712219,485.533203 
    C581.906189,481.129486 581.375549,476.675323 580.705505,471.768982 
  z"/>
</defs>
  <rect width="1024" height="1024" rx="200" fill="url(#msPanel)"/>
  <g transform="translate(120,120) scale(0.765625)"><use xlink:href="#mascot-background" href="#mascot-background" fill="url(#msBg)"/>
    <use xlink:href="#mascot-body-path" href="#mascot-body-path" fill="#1a2e2a"/>
    <use xlink:href="#mascot-eye-left-path" href="#mascot-eye-left-path" fill="#1a2e2a"/>
    <use xlink:href="#mascot-eye-right-path" href="#mascot-eye-right-path" fill="#1a2e2a"/></g>
</svg>